<svg height="511pt" viewBox="0 -26 511.99977 511" width="511pt" xmlns="http://www.w3.org/2000/svg"><path d="m381.824219 147.980469c-4.792969 0-8.675781-3.886719-8.675781-8.675781v-52.050782c0-4.792968 3.882812-8.675781 8.675781-8.675781 4.789062 0 8.675781 3.882813 8.675781 8.675781v52.050782c0 4.789062-3.886719 8.675781-8.675781 8.675781zm0 0" fill="#70400e"/><path d="m427.367188 165.328125h-45.542969c-4.792969 0-8.675781-3.882813-8.675781-8.675781 0-4.789063 3.882812-8.671875 8.675781-8.671875h45.542969c4.792968 0 8.675781 3.882812 8.675781 8.671875 0 4.792968-3.882813 8.675781-8.675781 8.675781zm0 0" fill="#70400e"/><path d="m121.566406 139.304688c-4.792968 0-8.675781-3.886719-8.675781-8.675782v-43.375c0-4.792968 3.882813-8.675781 8.675781-8.675781 4.789063 0 8.675782 3.882813 8.675782 8.675781v43.375c0 4.789063-3.882813 8.675782-8.675782 8.675782zm0 0" fill="#70400e"/><path d="m77.097656 164.246094c-4.792968.015625-8.6875-3.859375-8.703125-8.648438-.011719-4.121094 2.875-7.679687 6.90625-8.519531l35.785157-7.59375c4.691406-.996094 9.300781 2 10.296874 6.691406.996094 4.6875-1.996093 9.300781-6.6875 10.296875l-35.785156 7.589844c-.597656.121094-1.203125.179688-1.8125.183594zm0 0" fill="#70400e"/><path d="m251.695312 113.277344c-2.636718 0-5.128906-1.195313-6.777343-3.253906l-34.699219-43.375c-2.996094-3.742188-2.390625-9.203126 1.351562-12.199219 3.742188-2.992188 9.203126-2.386719 12.199219 1.355469l34.699219 43.375c2.996094 3.742187 2.390625 9.199218-1.347656 12.195312-1.539063 1.230469-3.453125 1.902344-5.425782 1.902344zm0 0" fill="#70400e"/><path d="m260.371094 174.003906c-4.792969 0-8.675782-3.886718-8.675782-8.675781.003907-2.300781.914063-4.503906 2.542969-6.132813l34.699219-34.699218c3.445312-3.328125 8.9375-3.234375 12.265625.210937 3.25 3.363281 3.25 8.695313 0 12.054688l-34.699219 34.703125c-1.625 1.625-3.832031 2.539062-6.132812 2.539062zm0 0" fill="#70400e"/><path d="m415.65625 101.453125c-5.925781-2.308594-12.660156-.824219-17.0625 3.765625l-53.222656 53.222656c-4.503906 4.503906-10.164063 7.683594-16.355469 9.1875l-54.453125 13.21875-5.515625-32.867187v-26.027344l-17.351563-86.753906-17.351562 86.753906v26.027344l-5.480469 32.867187-58.238281-22.042968c-3.757812-1.414063-7.242188-3.46875-10.296875-6.070313l-55.894531-47.886719c-5.816406-5.820312-15.1875-6.015625-21.238282-.445312-6.230468 6.210937-6.246093 16.296875-.035156 22.527344.078125.078124.15625.152343.234375.230468l59.625 59.625c3.003907 3.003906 6.53125 5.4375 10.410157 7.171875l54.890624 31.171875-6.613281 139.539063c-1.328125 28.035156-13.058593 54.5625-32.90625 74.410156l-12.535156 12.535156h190.855469l-12.535156-12.535156c-19.84375-19.84375-31.578126-46.375-32.90625-74.410156l-6.609376-139.539063 51.800782-22.148437c5.847656-1.933594 11.074218-5.382813 15.144531-10.003907l58.628906-66.46875c6-5.992187 6.003907-15.714843.011719-21.714843-1.429688-1.433594-3.128906-2.566407-5-3.339844zm0 0" fill="#834b10"/><path d="m170.730469.5 2.4375 27.144531c1.246093 14.0625 10.886719 25.96875 24.382812 30.113281l19.164063 5.878907.277344-20.082031c.195312-14.105469-8.175782-26.925782-21.164063-32.429688zm0 0" fill="#e0632e"/><path d="m399.175781 248.066406-27.15625-2.308594c-14.054687-1.1875-27.425781 6.25-33.832031 18.816407l-9.117188 17.871093 19.691407 3.738282c13.851562 2.617187 27.90625-3.402344 35.570312-15.234375zm0 0" fill="#fd9226"/><path d="m347.121094 78.578125-26.441406 6.609375c-13.683594 3.425781-23.933594 14.792969-25.929688 28.757812l-2.835938 19.839844 19.839844-2.835937c13.964844-1.992188 25.335938-12.246094 28.757813-25.929688zm0 0" fill="#b94137"/><path d="m69.800781 315.003906-27.179687-2.066406c-14.0625-1.070312-27.371094 6.472656-33.675782 19.085938l-8.945312 17.96875 19.726562 3.5625c13.882813 2.511718 27.902344-3.636719 35.464844-15.542969zm0 0" fill="#fd9226"/><path d="m503.277344 432.777344-15.917969-22.121094c-8.242187-11.449219-22.59375-16.773438-36.308594-13.464844l-19.484375 4.703125 9.96875 17.351563c7.011719 12.230468 20.726563 19 34.699219 17.132812zm0 0" fill="#e0632e"/><path d="m164.941406 262.796875c-4.789062 0-8.675781-3.882813-8.675781-8.671875-.003906-2.121094.773437-4.167969 2.179687-5.757812 2.878907-3.242188 5.636719-6.644532 8.1875-10.113282 2.847657-3.855468 8.28125-4.675781 12.136719-1.832031 3.859375 2.847656 4.675781 8.28125 1.832031 12.136719-2.863281 3.878906-5.941406 7.679687-9.160156 11.277344-1.640625 1.875-4.007812 2.953124-6.5 2.960937zm0 0" fill="#a8d6da"/><path d="m94.308594 307.925781c-4.792969.011719-8.6875-3.859375-8.699219-8.652343-.011719-3.777344 2.421875-7.125 6.019531-8.28125l3.511719-1.136719c13.828125-4.507813 26.894531-11.078125 38.761719-19.484375 3.824218-2.886719 9.265625-2.125 12.148437 1.699218 2.886719 3.828126 2.125 9.265626-1.703125 12.152344-.132812.101563-.273437.203125-.417968.296875-13.273438 9.425781-27.898438 16.785157-43.375 21.835938l-3.515626 1.144531c-.878906.285156-1.804687.429688-2.730468.425781zm0 0" fill="#8aced8"/><path d="m488.355469 208.707031c-4.792969.003907-8.679688-3.878906-8.683594-8.667969 0-2.304687.914063-4.511718 2.542969-6.140624 5.109375-5.097657 9.832031-10.570313 14.121094-16.371094 2.847656-3.859375 8.28125-4.675782 12.136718-1.832032 3.859375 2.847657 4.675782 8.28125 1.832032 12.136719-4.796876 6.496094-10.066407 12.621094-15.773438 18.332031-1.636719 1.636719-3.859375 2.550782-6.175781 2.542969zm0 0" fill="#8aced8"/><path d="m423.96875 247.199219c-4.792969.011719-8.6875-3.859375-8.703125-8.652344-.007813-3.777344 2.425781-7.125 6.019531-8.28125l3.515625-1.136719c13.828125-4.507812 26.898438-11.078125 38.761719-19.496094 3.910156-2.769531 9.328125-1.847656 12.101562 2.066407 2.769532 3.910156 1.847657 9.332031-2.066406 12.101562-13.296875 9.417969-27.9375 16.777344-43.425781 21.828125l-3.515625 1.144532c-.867188.28125-1.773438.421874-2.6875.425781zm0 0" fill="#a8d6da"/><path d="m405.542969 396.222656c-1.152344 0-2.296875-.230468-3.359375-.679687-22.53125-9.503907-42.632813-23.964844-58.808594-42.308594-3.003906-3.730469-2.417969-9.191406 1.3125-12.195313 3.503906-2.824218 8.582031-2.5 11.699219.746094 14.441406 16.375 32.386719 29.28125 52.503906 37.761719 4.417969 1.855469 6.496094 6.941406 4.640625 11.359375-1.355469 3.222656-4.511719 5.316406-8.007812 5.316406zm0 0" fill="#a8d6da"/><g fill="#70400e"><path d="m208.320312 460.289062c-4.792968-.003906-8.675781-3.886718-8.675781-8.679687 0-2.296875.914063-4.503906 2.539063-6.128906l7.628906-7.625c10.1875-10.132813 15.898438-23.921875 15.855469-38.292969 0-4.792969 3.886719-8.675781 8.675781-8.675781 4.792969 0 8.675781 3.882812 8.675781 8.675781.050781 18.972656-7.488281 37.179688-20.941406 50.558594l-7.625 7.625c-1.628906 1.625-3.832031 2.542968-6.132813 2.542968zm0 0"/><path d="m295.070312 460.289062c-2.300781 0-4.507812-.914062-6.132812-2.542968l-7.625-7.625c-13.453125-13.378906-20.992188-31.585938-20.941406-50.558594 0-4.792969 3.882812-8.675781 8.675781-8.675781 4.789063 0 8.671875 3.882812 8.671875 8.675781-.039062 14.367188 5.671875 28.15625 15.859375 38.292969l7.625 7.625c3.386719 3.386719 3.386719 8.878906 0 12.265625-1.628906 1.628906-3.832031 2.542968-6.132813 2.542968zm0 0"/><path d="m425.199219 460.289062h-347.007813c-4.792968 0-8.675781-3.886718-8.675781-8.675781 0-4.792969 3.882813-8.675781 8.675781-8.675781h347.007813c4.792969 0 8.675781 3.882812 8.675781 8.675781 0 4.789063-3.882812 8.675781-8.675781 8.675781zm0 0"/><path d="m234.34375 330.160156c-4.789062 0-8.675781-3.886718-8.675781-8.675781v-17.351563c0-4.789062 3.886719-8.675781 8.675781-8.675781 4.792969 0 8.675781 3.886719 8.675781 8.675781v17.351563c0 4.789063-3.882812 8.675781-8.675781 8.675781zm0 0"/><path d="m269.046875 295.457031c-4.792969 0-8.675781-3.882812-8.675781-8.675781v-17.347656c0-4.792969 3.882812-8.675782 8.675781-8.675782 4.789063 0 8.671875 3.882813 8.671875 8.675782v17.347656c0 4.792969-3.882812 8.675781-8.671875 8.675781zm0 0"/><path d="m269.046875 356.183594c-4.792969 0-8.675781-3.882813-8.675781-8.671875v-8.675781c0-4.792969 3.882812-8.675782 8.675781-8.675782 4.789063 0 8.671875 3.882813 8.671875 8.675782v8.675781c0 4.789062-3.882812 8.671875-8.671875 8.671875zm0 0"/><path d="m234.34375 260.757812c-4.789062 0-8.675781-3.882812-8.675781-8.675781v-8.675781c0-4.789062 3.886719-8.675781 8.675781-8.675781 4.792969 0 8.675781 3.886719 8.675781 8.675781v8.675781c0 4.792969-3.882812 8.675781-8.675781 8.675781zm0 0"/></g><path d="m138.917969 439.910156-20.328125-18.15625c-10.523438-9.398437-25.6875-11.492187-38.359375-5.292968l-18.003907 8.804687 13.492188 14.824219c9.5 10.433594 24.371094 14.070312 37.613281 9.207031zm0 0" fill="#b94137"/></svg>