<svg height="511pt" viewBox="-55 1 511 511.99999" width="511pt" xmlns="http://www.w3.org/2000/svg"><path d="m183.039062 80.140625h35.617188v52.3125h-35.617188zm0 0" fill="#ea9d2d"/><path d="m401.195312 311.652344c0 110.648437-89.699218 200.347656-200.347656 200.347656-110.648437 0-200.347656-89.699219-200.347656-200.347656 0-110.648438 89.699219-200.347656 200.347656-200.347656 110.648438 0 200.347656 89.699218 200.347656 200.347656zm0 0" fill="#69b0bb"/><path d="m361.125 311.652344c0 88.519531-71.757812 160.277344-160.277344 160.277344-88.519531 0-160.277344-71.757813-160.277344-160.277344 0-88.519532 71.757813-160.277344 160.277344-160.277344 88.519532 0 160.277344 71.757812 160.277344 160.277344zm0 0" fill="#fbb540"/><g fill="#ea9d2d"><path d="m200.847656 213.703125c-4.917968 0-8.902344-3.984375-8.902344-8.902344v-17.808593c0-4.917969 3.984376-8.90625 8.902344-8.90625 4.917969 0 8.90625 3.988281 8.90625 8.90625v17.808593c0 4.917969-3.988281 8.902344-8.90625 8.902344zm0 0"/><path d="m200.847656 445.21875c-4.917968 0-8.902344-3.988281-8.902344-8.90625v-17.808594c0-4.917968 3.984376-8.902344 8.902344-8.902344 4.917969 0 8.90625 3.984376 8.90625 8.902344v17.808594c0 4.917969-3.988281 8.90625-8.90625 8.90625zm0 0"/><path d="m325.507812 320.554688h-17.808593c-4.917969 0-8.902344-3.984376-8.902344-8.902344 0-4.917969 3.984375-8.90625 8.902344-8.90625h17.808593c4.917969 0 8.90625 3.988281 8.90625 8.90625 0 4.917968-3.988281 8.902344-8.90625 8.902344zm0 0"/><path d="m93.996094 320.554688h-17.808594c-4.917969 0-8.90625-3.984376-8.90625-8.902344 0-4.917969 3.988281-8.90625 8.90625-8.90625h17.808594c4.917968 0 8.902344 3.988281 8.902344 8.90625 0 4.917968-3.984376 8.902344-8.902344 8.902344zm0 0"/></g><path d="m130.058594 242.394531 50.816406 86.433594 3.464844.445313 33.015625-33.015626-.863281-3.046874zm0 0" fill="#f55648"/><path d="m200.847656 0c-27.046875 0-48.972656 21.925781-48.972656 48.972656s21.925781 48.976563 48.972656 48.976563 48.972656-21.929688 48.972656-48.976563-21.925781-48.972656-48.972656-48.972656zm0 66.78125c-9.835937 0-17.808594-7.972656-17.808594-17.808594 0-9.835937 7.972657-17.808594 17.808594-17.808594 9.835938 0 17.808594 7.972657 17.808594 17.808594 0 9.835938-7.972656 17.808594-17.808594 17.808594zm0 0" fill="#da922a"/><path d="m267.328125 379.664062-86.433594-50.828124 35.617188-35.617188zm0 0" fill="#60a0aa"/></svg>