<svg height="512pt" viewBox="-69 0 512 512.00003" width="512pt" xmlns="http://www.w3.org/2000/svg"><path d="m112.8125 512-69.421875-199.59375h138.847656zm0 0" fill="#f3af3e"/><path d="m86.945312 437.613281 75.324219-67.792969 7.339844-21.113281c-3.238281-2.234375-7.585937-1.96875-10.535156.640625l-78.316407 70.484375zm0 0" fill="#da922a"/><path d="m92.066406 452.347656 5.839844 16.792969c1.203125-.328125 2.316406-.921875 3.261719-1.738281l38.988281-34.035156 11.351562-32.636719c-.351562.164062-.691406.355469-1.015624.574219zm0 0" fill="#da922a"/><path d="m321.085938 86.78125c0 19.167969-15.542969 34.710938-34.710938 34.710938-19.171875 0-34.714844-15.542969-34.714844-34.710938 0-19.171875 15.542969-34.714844 34.714844-34.714844 19.167969 0 34.710938 15.542969 34.710938 34.714844zm0 0" fill="#fbb540"/><path d="m286.375 26.035156c-4.792969 0-8.679688-3.886718-8.679688-8.679687v-8.675781c0-4.792969 3.886719-8.679688 8.679688-8.679688s8.675781 3.886719 8.675781 8.679688v8.675781c0 4.792969-3.886719 8.679687-8.675781 8.679687zm0 0" fill="#fbb540"/><path d="m237.28125 46.367188c-2.300781 0-4.507812-.914063-6.136719-2.542969l-6.132812-6.136719c-3.332031-3.445312-3.234375-8.941406.210937-12.269531 3.363282-3.25 8.695313-3.25 12.058594 0l6.136719 6.136719c3.386719 3.386718 3.386719 8.882812-.003907 12.269531-1.625 1.628906-3.832031 2.542969-6.132812 2.542969zm0 0" fill="#f7ba61"/><path d="m216.949219 95.457031h-8.675781c-4.792969 0-8.679688-3.882812-8.679688-8.675781s3.886719-8.679688 8.679688-8.679688h8.675781c4.792969 0 8.679687 3.886719 8.679687 8.679688 0 4.789062-3.886718 8.675781-8.679687 8.675781zm0 0" fill="#fbb540"/><path d="m231.144531 150.683594c-4.789062 0-8.675781-3.886719-8.675781-8.679688.003906-2.300781.914062-4.507812 2.542969-6.132812l6.132812-6.136719c3.332031-3.445313 8.824219-3.542969 12.273438-.210937 3.445312 3.328124 3.542969 8.824218.210937 12.269531-.066406.074219-.140625.144531-.210937.214843l-6.136719 6.132813c-1.621094 1.632813-3.832031 2.550781-6.136719 2.542969zm0 0" fill="#f7ba61"/><path d="m286.375 173.558594c-4.792969 0-8.679688-3.882813-8.679688-8.675782v-8.679687c0-4.792969 3.886719-8.675781 8.679688-8.675781 4.789062 0 8.675781 3.882812 8.675781 8.675781v8.679687c0 4.792969-3.886719 8.675782-8.675781 8.675782zm0 0" fill="#fbb540"/><path d="m341.597656 150.683594c-2.300781.007812-4.511718-.910156-6.132812-2.542969l-6.136719-6.132813c-3.445313-3.332031-3.542969-8.824218-.210937-12.273437 3.328124-3.445313 8.820312-3.542969 12.269531-.210937.074219.070312.144531.140624.214843.210937l6.132813 6.136719c3.390625 3.390625 3.386719 8.882812 0 12.273437-1.628906 1.625-3.835937 2.539063-6.136719 2.539063zm0 0" fill="#f7ba61"/><path d="m364.476562 95.457031h-8.679687c-4.792969 0-8.675781-3.882812-8.675781-8.675781s3.882812-8.679688 8.675781-8.679688h8.679687c4.789063 0 8.675782 3.886719 8.675782 8.679688s-3.886719 8.675781-8.675782 8.675781zm0 0" fill="#fbb540"/><path d="m335.464844 46.367188c-4.792969-.003907-8.675782-3.886719-8.675782-8.679688 0-2.300781.914063-4.507812 2.539063-6.132812l6.136719-6.136719c3.328125-3.445313 8.824218-3.542969 12.269531-.214844 3.449219 3.332031 3.542969 8.824219.214844 12.273437-.070313.070313-.140625.140626-.214844.210938l-6.132813 6.136719c-1.628906 1.628906-3.835937 2.542969-6.136718 2.542969zm0 0" fill="#f7ba61"/><path d="m225.628906 234.304688c.03125-62.304688-50.453125-112.839844-112.757812-112.871094-62.304688-.03125-112.839844 50.453125-112.871094 112.757812-.0117188 26.347656 9.195312 51.871094 26.035156 72.140625v32.109375c0 9.585938 7.769532 17.355469 17.355469 17.355469s17.355469-7.769531 17.355469-17.355469v34.710938c0 9.585937 7.769531 17.355468 17.355468 17.355468 9.585938 0 17.355469-7.769531 17.355469-17.355468v-27.5c17.429688 2.886718 35.296875 1.5 52.070313-4.035156v5.5c0 9.585937 7.769531 17.355468 17.355468 17.355468 9.585938 0 17.355469-7.769531 17.355469-17.355468v-24.011719c27.382813-21.324219 43.394531-54.09375 43.390625-88.800781zm0 0" fill="#aedee2"/><path d="m164.882812 208.269531c-9.585937 0-17.355468 7.773438-17.355468 17.359375 0 9.582032 7.769531 17.355469 17.355468 17.355469h60.234376c.222656-2.882813.511718-5.746094.511718-8.679687-.035156-8.769532-1.089844-17.507813-3.144531-26.03125h-57.601563zm0 0" fill="#8dc79d"/><path d="m216.75 277.695312c4.636719-11.046874 7.460938-22.765624 8.367188-34.710937h-42.878907c-9.585937 0-17.355469 7.769531-17.355469 17.355469 0 9.585937 7.769532 17.355468 17.355469 17.355468zm0 0" fill="#8dc79d"/><path d="m60.746094 216.949219c0-9.585938-7.769532-17.355469-17.355469-17.355469h-37.886719c-3.644531 11.210938-5.49999975 22.921875-5.503906 34.710938h43.390625c9.585937 0 17.355469-7.769532 17.355469-17.355469zm0 0" fill="#99d8aa"/><path d="m5.503906 199.59375h55.242188c19.171875.007812 34.71875-15.53125 34.722656-34.699219.007812-16.464843-11.554688-30.667969-27.675781-34.003906-29.632813 12.9375-52.308594 37.945313-62.289063 68.703125zm0 0" fill="#99d8aa"/><g fill="#8dc79d"><path d="m78.101562 277.695312h17.355469c9.585938 0 17.355469 7.769532 17.355469 17.355469 0 9.585938-7.769531 17.355469-17.355469 17.355469h-17.355469c-9.585937 0-17.355468-7.769531-17.355468-17.355469 0-9.585937 7.769531-17.355469 17.355468-17.355469zm0 0"/><path d="m164.882812 164.882812h36.734376c-11.328126-14.5-26.023438-26.011718-42.808594-33.542968-8.941406 3.460937-13.382813 13.511718-9.921875 22.453125 2.5625 6.617187 8.898437 11.011719 15.996093 11.089843zm0 0"/></g></svg>