<svg height="512pt" viewBox="0 0 512 512.00029" width="512pt" xmlns="http://www.w3.org/2000/svg"><path d="m220.695312 123.621094c-4.902343-.027344-8.855468-4.023438-8.824218-8.925782 0-.386718.027344-.769531.078125-1.152343l.804687-5.804688c5.398438-38.175781 25.195313-72.835937 55.332032-96.878906 3.761718-3.101563 9.324218-2.5625 12.421874 1.195313 3.101563 3.761718 2.5625 9.324218-1.199218 12.425781-.0625.050781-.125.101562-.191406.152343-26.625 21.246094-44.117188 51.875-48.890626 85.601563l-.839843 5.832031c-.625 4.324219-4.324219 7.535156-8.691407 7.554688zm0 0" fill="#a8d6da"/><path d="m114.796875 300.121094c-.421875-.003906-.84375-.035156-1.261719-.097656l-5.796875-.785157c-38.171875-5.402343-72.832031-25.199219-96.878906-55.332031-3.046875-3.808594-2.429687-9.363281 1.375-12.410156 3.808594-3.042969 9.363281-2.429688 12.40625 1.378906 21.25 26.625 51.875 44.117188 85.601563 48.890625l5.84375.835937c4.800781.832032 8.019531 5.402344 7.1875 10.203126-.71875 4.148437-4.265626 7.210937-8.476563 7.316406zm0 0" fill="#a8d6da"/><path d="m238.347656 503.09375c-4.875.007812-8.832031-3.9375-8.839844-8.8125-.003906-2.6875 1.214844-5.226562 3.3125-6.90625 26.632813-21.246094 44.125-51.871094 48.902344-85.601562l.828125-5.824219c.625-4.832031 5.046875-8.246094 9.882813-7.621094 4.832031.621094 8.246094 5.046875 7.621094 9.878906-.007813.074219-.019532.148438-.03125.222657l-.785157 5.824218c-5.410156 38.1875-25.226562 72.855469-55.386719 96.898438-1.5625 1.25-3.503906 1.9375-5.503906 1.941406zm0 0" fill="#a8d6da"/><path d="m494.269531 282.46875c-2.6875.003906-5.226562-1.21875-6.902343-3.316406-21.246094-26.628906-51.871094-44.125-85.601563-48.898438l-5.84375-.820312c-4.824219-.6875-8.183594-5.160156-7.496094-9.984375.6875-4.828125 5.160157-8.1875 9.984375-7.5l5.84375.839843c38.183594 5.390626 72.855469 25.191407 96.898438 55.339844 3.046875 3.804688 2.429687 9.359375-1.375 12.40625-1.5625 1.25-3.507813 1.933594-5.507813 1.933594zm0 0" fill="#a8d6da"/><g fill="#c0f5f9"><path d="m255.996094 123.621094c-1.496094.003906-2.96875-.378906-4.269532-1.109375-4.261718-2.367188-5.796874-7.734375-3.433593-11.996094 29.476562-52.769531 78.878906-91.515625 137.15625-107.566406l9.421875-2.566407c4.664062-1.414062 9.59375 1.21875 11.007812 5.882813 1.417969 4.664063-1.21875 9.589844-5.882812 11.007813-.160156.046874-.324219.09375-.488282.132812l-9.375 2.566406c-53.695312 14.789063-99.222656 50.484375-126.390624 99.105469-1.558594 2.8125-4.527344 4.554687-7.746094 4.542969zm0 0"/><path d="m123.621094 255.996094c-.007813 4.875-3.964844 8.820312-8.835938 8.8125-1.492187-.003906-2.960937-.386719-4.269531-1.109375-52.773437-29.472657-91.523437-78.882813-107.566406-137.164063l-2.566407-9.425781c-1.414062-4.664063 1.21875-9.589844 5.882813-11.007813 4.664063-1.414062 9.589844 1.21875 11.007813 5.882813.046874.164063.09375.328125.132812.492187l2.566406 9.382813c14.785156 53.691406 50.484375 99.21875 99.105469 126.378906 2.816406 1.5625 4.558594 4.535157 4.542969 7.757813zm0 0"/><path d="m255.996094 388.308594c1.496094-.003906 2.964844.378906 4.269531 1.109375 4.261719 2.363281 5.804687 7.730469 3.441406 11.992187-29.441406 52.792969-78.820312 91.574219-137.082031 107.664063l-9.417969 2.570312c-4.679687 1.367188-9.578125-1.320312-10.945312-5.996093-1.367188-4.679688 1.316406-9.578126 5.996093-10.945313.097657-.03125.199219-.058594.296876-.082031l9.417968-2.578125c53.664063-14.835938 99.140625-50.5625 126.257813-99.191407 1.5625-2.820312 4.539062-4.5625 7.765625-4.542968zm0 0"/><path d="m388.367188 255.996094c.007812-4.875 3.960937-8.820313 8.835937-8.816406 1.496094 0 2.972656.382812 4.28125 1.113281 52.757813 29.480469 91.5 78.886719 107.546875 137.15625l2.570312 9.421875c1.414063 4.664062-1.21875 9.59375-5.882812 11.007812-4.664062 1.414063-9.59375-1.21875-11.007812-5.882812-.050782-.160156-.09375-.324219-.132813-.492188l-2.570313-9.371094c-14.789062-53.695312-50.484374-99.21875-99.101562-126.390624-2.8125-1.5625-4.550781-4.53125-4.539062-7.746094zm0 0"/><path d="m406.011719 255.988281c0 82.855469-67.167969 150.023438-150.023438 150.023438s-150.023437-67.167969-150.023437-150.023438 67.167968-150.023437 150.023437-150.023437 150.023438 67.167968 150.023438 150.023437zm0 0"/></g><path d="m344.058594 250.046875c-.324219-4.875-4.535156-8.5625-9.410156-8.238281-4.875.324218-8.5625 4.539062-8.238282 9.414062.527344 7.894532-.269531 15.824219-2.355468 23.457032-1.289063 4.699218 1.472656 9.554687 6.175781 10.84375.765625.21875 1.558593.328124 2.355469.328124 3.96875-.007812 7.449218-2.660156 8.5-6.488281.859374-3.167969 1.554687-6.378906 2.074218-9.617187 1.019532-6.515625 1.320313-13.121094.898438-19.699219zm0 0" fill="#8aced8"/><path d="m279.347656 170.878906c-9.535156-2.597656-19.4375-3.59375-29.300781-2.945312-4.851563.4375-8.429687 4.730468-7.992187 9.585937.425781 4.6875 4.460937 8.21875 9.167968 8.019531 7.902344-.523437 15.839844.277344 23.480469 2.371094 4.703125 1.28125 9.558594-1.492187 10.839844-6.195312s-1.492188-9.554688-6.195313-10.835938zm0 0" fill="#8aced8"/><path d="m181.714844 226.449219c-4.699219-1.289063-9.554688 1.476562-10.84375 6.175781-2.589844 9.53125-3.585938 19.425781-2.949219 29.28125.308594 4.644531 4.171875 8.253906 8.824219 8.242188h.59375c4.863281-.320313 8.546875-4.519532 8.222656-9.382813 0-.003906 0-.003906 0-.003906-.351562-5.273438-.113281-10.570313.714844-15.789063.417968-2.589844.96875-5.15625 1.652344-7.6875 1.277343-4.703125-1.496094-9.550781-6.199219-10.832031-.003907 0-.007813-.003906-.015625-.003906zm0 0" fill="#8aced8"/><path d="m260.761719 326.445312c-7.90625.507813-15.839844-.292968-23.484375-2.375-4.703125-1.277343-9.550782 1.496094-10.832032 6.199219-1.277343 4.703125 1.496094 9.554688 6.199219 10.832031 7.644531 2.089844 15.53125 3.144532 23.457031 3.140626 1.941407 0 3.890626-.058594 5.832032-.183594 4.875-.324219 8.5625-4.539063 8.238281-9.410156-.324219-4.875-4.539063-8.5625-9.410156-8.238282zm0 0" fill="#8aced8"/><path d="m279.207031 229.398438c-3.683593-3.195313-4.082031-8.769532-.886719-12.449219 0 0 0-.003907.003907-.003907 19.675781-22.433593 52.421875-27.929687 78.347656-13.148437 4.328125 2.421875 5.941406 7.851563 3.644531 12.25-2.121094 4.152344-7.207031 5.800781-11.363281 3.683594-.097656-.050781-.191406-.101563-.285156-.15625l-.761719-.433594c-18.621094-10.625-42.148438-6.679687-56.285156 9.445313-3.210938 3.636718-8.757813 4-12.414063.8125zm0 0" fill="#a8d6da"/><path d="m229.398438 232.777344c-3.207032 3.667968-8.78125 4.046875-12.453126.839844-22.433593-19.675782-27.929687-52.417969-13.148437-78.339844 2.421875-4.328125 7.851563-5.945313 12.25-3.644532 4.152344 2.121094 5.800781 7.207032 3.683594 11.359376-.050781.097656-.101563.195312-.15625.289062l-.429688.75c-10.628906 18.625-6.683593 42.15625 9.441407 56.292969 3.660156 3.214843 4.023437 8.789062.8125 12.453125zm0 0" fill="#a8d6da"/><path d="m232.777344 282.585938c3.667968 3.207031 4.046875 8.78125.839844 12.449218-19.675782 22.433594-52.417969 27.929688-78.339844 13.152344-4.328125-2.425781-5.945313-7.855469-3.644532-12.25 2.121094-4.15625 7.207032-5.804688 11.359376-3.683594.097656.050782.195312.101563.289062.152344l.75.433594c18.625 10.628906 42.15625 6.683594 56.292969-9.441406 3.214843-3.664063 8.789062-4.027344 12.453125-.8125zm0 0" fill="#a8d6da"/><path d="m282.585938 279.203125c3.191406-3.679687 8.765624-4.078125 12.449218-.882813v.003907c22.4375 19.675781 27.933594 52.421875 13.152344 78.34375-2.425781 4.332031-7.855469 5.945312-12.25 3.648437-4.15625-2.121094-5.804688-7.207031-3.683594-11.363281.050782-.097656.101563-.191406.152344-.289063l.433594-.757812c10.628906-18.621094 6.679687-42.152344-9.441406-56.285156-3.640626-3.210938-4.003907-8.757813-.8125-12.417969zm0 0" fill="#a8d6da"/><path d="m300.113281 255.988281c0 24.367188-19.757812 44.125-44.125 44.125-24.371093 0-44.125-19.757812-44.125-44.125 0-24.371093 19.753907-44.125 44.125-44.125 24.367188 0 44.125 19.753907 44.125 44.125zm0 0" fill="#8aced8"/></svg>