<svg height="511pt" viewBox="0 0 511.99959 511" width="511pt" xmlns="http://www.w3.org/2000/svg"><path d="m247.257812 75.527344c.03125-33.753906 22.605469-63.328125 55.15625-72.265625-39.914062-11.101563-81.269531 12.25-92.371093 52.164062-11.101563 39.910157 12.25 81.265625 52.160156 92.367188 13.152344 3.660156 27.058594 3.660156 40.210937 0-32.550781-8.933594-55.125-38.507813-55.15625-72.265625zm0 0" fill="#f3af3e"/><path d="m79.589844 256.433594c.011718-25.851563 13.355468-49.867188 35.296875-63.535156-35.089844-22.019532-81.386719-11.421876-103.40625 23.667968-22.015625 35.09375-11.417969 81.390625 23.671875 103.40625 24.378906 15.296875 55.359375 15.296875 79.734375 0-21.941407-13.667968-35.285157-37.683594-35.296875-63.539062zm0 0" fill="#fbb540"/><path d="m140.304688 420.707031c-1.25-.152343-2.453126-.566406-3.53125-1.21875-15.265626-9.257812-29.238282-20.492187-41.566407-33.410156-3.367187-3.523437-3.238281-9.109375.285157-12.476563 3.523437-3.367187 9.109374-3.242187 12.476562.28125 11.253906 11.796876 24.011719 22.058594 37.945312 30.515626 4.167969 2.527343 5.5 7.953124 2.972657 12.121093-1.792969 2.964844-5.160157 4.601563-8.601563 4.1875zm235.671874-3.75c-4.589843-1.640625-6.980468-6.6875-5.34375-11.277343.542969-1.523438 1.496094-2.863282 2.75-3.882813 12.664063-10.261719 23.910157-22.15625 33.445313-35.378906 2.847656-3.953125 8.363281-4.851563 12.316406-2.003907 3.957031 2.851563 4.855469 8.367188 2.003907 12.320313-10.445313 14.488281-22.769532 27.523437-36.648438 38.765625-2.390625 1.941406-5.625 2.492188-8.523438 1.457031zm-269.03125-280.730469c-4.796874-.855468-7.992187-5.441406-7.136718-10.238281.296875-1.664062 1.0625-3.207031 2.210937-4.449219 12.128907-13.089843 25.925781-24.535156 41.035157-34.035156 4.128906-2.59375 9.574218-1.355468 12.171874 2.769532 2.59375 4.128906 1.351563 9.574218-2.773437 12.171874-13.800781 8.675782-26.40625 19.128907-37.484375 31.089844-2.042969 2.203125-5.066406 3.21875-8.023438 2.691406zm278.535157-12.46875c-1.128907-.402343-2.160157-1.027343-3.035157-1.847656-11.960937-11.074218-25.335937-20.515625-39.78125-28.070312-4.347656-2.203125-6.089843-7.511719-3.886718-11.859375 2.203125-4.347657 7.511718-6.085938 11.859375-3.886719.070312.035156.136719.074219.207031.109375 15.828125 8.28125 30.484375 18.625 43.59375 30.761719 3.578125 3.308594 3.796875 8.894531.484375 12.472656-2.398437 2.59375-6.113281 3.503906-9.441406 2.320312zm0 0" fill="#aedee2"/><g fill="#fbb540"><path d="m512 256.433594c0 41.429687-33.582031 75.011718-75.011719 75.011718-41.425781 0-75.007812-33.582031-75.007812-75.011718 0-41.425782 33.582031-75.007813 75.007812-75.007813 41.429688 0 75.011719 33.582031 75.011719 75.007813zm0 0"/><path d="m291.382812 437.34375c-.007812-18.804688 7.085938-36.914062 19.855469-50.71875-28.011719-30.519531-75.460937-32.558594-105.984375-4.550781-30.523437 28.011719-32.558594 75.460937-4.550781 105.984375 28.011719 30.523437 75.460937 32.5625 105.984375 4.550781 1.582031-1.449219 3.097656-2.96875 4.550781-4.550781-12.769531-13.800782-19.859375-31.914063-19.855469-50.714844zm0 0"/></g></svg>