<svg height="511pt" viewBox="0 -71 511.99973 511" width="511pt" xmlns="http://www.w3.org/2000/svg"><path d="m51.203125 361.21875h-42.667969c-4.714844 0-8.535156-3.820312-8.535156-8.53125 0-4.714844 3.820312-8.535156 8.535156-8.535156h40.011719l134.363281-92.367188c2.296875-1.582031 5.21875-1.941406 7.828125-.964844l130.984375 49.136719 115.589844-132.101562c1.339844-1.535157 3.1875-2.535157 5.203125-2.824219l59.738281-8.535156c4.664063-.667969 8.988282 2.570312 9.660156 7.238281.667969 4.664063-2.574218 8.988281-7.238281 9.660156l-56.613281 8.089844-117.363281 134.15625c-2.335938 2.664063-6.070313 3.605469-9.386719 2.375l-132.402344-49.652344-132.878906 91.355469c-1.421875.976562-3.105469 1.5-4.828125 1.5zm0 0" fill="#8aced8"/><g fill="#b8eaee"><path d="m317.257812 128.503906-32.429687 71.386719c-6.144531 13.527344-3.257813 29.445313 7.246094 39.953125 13.921875 13.921875 36.488281 13.921875 50.410156 0 10.503906-10.507812 13.390625-26.425781 7.246094-39.953125zm0 0"/><path d="m49.691406 164.945312-32.429687 71.382813c-6.144531 13.527344-3.257813 29.449219 7.246093 39.957031 13.921876 13.917969 36.488282 13.917969 50.410157 0 10.503906-10.507812 13.390625-26.429687 7.246093-39.957031zm0 0"/><path d="m445.265625.5-32.429687 71.382812c-6.144532 13.527344-3.257813 29.449219 7.246093 39.957032 13.917969 13.917968 36.488281 13.917968 50.40625 0 10.503907-10.507813 13.390625-26.429688 7.246094-39.957032zm0 0"/></g><path d="m14.113281 252.585938c.808594 19.652343 17.390625 34.929687 37.042969 34.125 18.519531-.761719 33.363281-15.601563 34.121094-34.125zm0 0" fill="#c0f5f9"/><path d="m284.8125 199.933594c-8.160156 17.910156-.257812 39.042968 17.648438 47.207031 17.910156 8.160156 39.046874.257813 47.207031-17.652344 4.28125-9.386719 4.28125-20.167969 0-29.554687l-.332031-.855469h-64.15625zm0 0" fill="#c0f5f9"/><path d="m68.269531 352.6875c0 9.425781-7.640625 17.066406-17.066406 17.066406s-17.070313-7.640625-17.070313-17.066406 7.644532-17.070312 17.070313-17.070312 17.066406 7.644531 17.066406 17.070312zm0 0" fill="#f7ba61"/><path d="m204.808594 258.816406c0 9.425782-7.640625 17.066406-17.066406 17.066406-9.425782 0-17.066407-7.640624-17.066407-17.066406 0-9.425781 7.640625-17.070312 17.066407-17.070312 9.425781 0 17.066406 7.644531 17.066406 17.070312zm0 0" fill="#f7ba61"/><path d="m460.820312 173.476562c0 9.425782-7.640624 17.070313-17.066406 17.070313-9.425781 0-17.066406-7.644531-17.066406-17.070313 0-9.425781 7.640625-17.066406 17.066406-17.066406 9.425782 0 17.066406 7.640625 17.066406 17.066406zm0 0" fill="#f7ba61"/><path d="m341.347656 310.019531c0 9.425781-7.640625 17.066407-17.066406 17.066407s-17.066406-7.640626-17.066406-17.066407c0-9.429687 7.640625-17.070312 17.066406-17.070312s17.066406 7.640625 17.066406 17.070312zm0 0" fill="#e06661"/><path d="m189.253906 85.835938-32.429687 71.386718c-6.144531 13.527344-3.257813 29.445313 7.246093 39.953125 13.917969 13.917969 36.488282 13.917969 50.40625 0 10.503907-10.507812 13.390626-26.425781 7.246094-39.953125zm0 0" fill="#b8eaee"/><path d="m156.808594 157.265625c-8.164063 17.90625-.261719 39.042969 17.648437 47.203125 17.910157 8.164062 39.042969.261719 47.207031-17.648438 4.277344-9.386718 4.277344-20.167968 0-29.554687l-11.972656-26.457031h-40.886718zm0 0" fill="#c0f5f9"/></svg>