<svg height="511pt" viewBox="1 -73 511.99966 511" width="511pt" xmlns="http://www.w3.org/2000/svg"><path d="m433.898438 35.210938h-15.1875v-8.675782c0-14.378906-11.65625-26.035156-26.03125-26.035156-14.378907 0-26.035157 11.65625-26.035157 26.035156v8.675782h-8.679687c-14.378906 0-26.03125 11.65625-26.03125 26.035156s11.652344 26.035156 26.03125 26.035156h75.933594c14.378906 0 26.035156-11.65625 26.035156-26.035156s-11.65625-26.035156-26.035156-26.035156zm0 0" fill="#a8d6da"/><path d="m156.203125 252.160156 43.390625-78.101562h156.203125l43.390625 156.203125 66.820312 9.683593c38.96875-118.359374-25.390624-245.898437-143.75-284.867187-118.359374-38.972656-245.902343 25.386719-284.871093 143.746094-6.121094 18.597656-9.800781 37.914062-10.9375 57.457031zm0 0" fill="#ea6b65"/><path d="m156.203125 252.160156v-78.101562l112.8125-17.355469 69.425781 34.710937 90.761719 148.273438c38.8125-98.035156-9.199219-208.976562-107.234375-247.789062s-208.972656 9.199218-247.785156 107.234374c-7.097656 17.921876-11.4375 36.816407-12.875 56.039063zm0 0" fill="#fbb540"/><path d="m156.203125 252.160156 26.035156-52.066406 69.421875-34.710938 95.457032 43.386719 8.679687 121.492188 35.40625 9.164062c38.675781-77.039062 7.578125-170.84375-69.460937-209.519531-77.039063-38.675781-170.84375-7.578125-209.519532 69.460938-8.585937 17.105468-13.957031 35.644531-15.835937 54.695312zm0 0" fill="#99d8aa"/><path d="m366.488281 308.90625c21.917969-63.417969-11.726562-132.59375-75.140625-154.511719-63.417968-21.917969-132.597656 11.722657-154.515625 75.140625-4.441406 12.859375-6.695312 26.375-6.664062 39.980469 0 2.925781.105469 5.816406.3125 8.679687h34.921875c-4.855469-47.648437 29.832031-90.210937 77.480468-95.066406 47.644532-4.855468 90.207032 29.832032 95.0625 77.480469 1.476563 14.46875-.710937 29.074219-6.359374 42.472656zm0 0" fill="#69b0bb"/><path d="m34.710938 234.804688v-21.695313c.097656-31.152344 25.429687-56.328125 56.582031-56.230469 26.066406.082032 48.679687 18.011719 54.703125 43.371094.515625 0 1.007812-.15625 1.53125-.15625 19.167968 0 34.710937 15.539062 34.710937 34.710938 19.167969 0 34.710938 15.539062 34.710938 34.710937s-15.542969 34.710937-34.710938 34.710937h-147.527343c-19.167969 0-34.710938-15.539062-34.710938-34.710937 0-19.167969 15.542969-34.710937 34.710938-34.710937zm0 0" fill="#b8eaee"/><path d="m477.289062 295.550781h-26.035156v-13.015625c0-21.570312-17.484375-39.050781-39.050781-39.050781s-39.050781 17.480469-39.050781 39.050781v13.015625h-26.035156c-19.167969 0-34.710938 15.539063-34.710938 34.710938s15.542969 34.710937 34.710938 34.710937h130.171874c19.167969 0 34.710938-15.539062 34.710938-34.710937s-15.542969-34.710938-34.710938-34.710938zm0 0" fill="#c0f5f9"/></svg>