<svg height="512pt" viewBox="-4 0 512 512.00036" width="512pt" xmlns="http://www.w3.org/2000/svg"><path d="m308.964844 52.964844-17.65625 8.828125h-79.445313l-8.828125-8.828125 12.480469-37.453125c2.917969-8.769531 12.101563-13.804688 21.0625-11.546875l10.886719 2.71875c5.621094 1.410156 11.503906 1.410156 17.125 0l10.832031-2.71875c8.953125-2.242188 18.117187 2.789062 21.035156 11.546875zm0 0" fill="#e88623"/><path d="m469.628906 237.886719-15.007812-3.003907 19.542968-19.542968c3.449219-3.445313 3.453126-9.035156.003907-12.484375-3.445313-3.449219-9.035157-3.453125-12.484375-.007813l-19.554688 19.554688-3-15.007813c-.972656-4.777343-5.632812-7.863281-10.410156-6.890625-4.757812.96875-7.839844 5.597656-6.902344 10.359375l5.296875 26.570313-65.324219 65.328125c-3.445312 3.449219-3.445312 9.039062.003907 12.484375 3.449219 3.449218 9.042969 3.445312 12.488281-.003906l65.324219-65.324219 26.578125 5.296875c.582031.121094 1.175781.179687 1.765625.175781 4.878906.03125 8.851562-3.898437 8.882812-8.773437.027344-4.234376-2.960937-7.890626-7.117187-8.714844zm0 0" fill="#834b10"/><path d="m82.160156 237.402344 5.296875-26.574219c.941407-4.78125-2.167969-9.425781-6.953125-10.367187-4.761718-.941407-9.390625 2.140624-10.359375 6.898437l-3 15.007813-19.527343-19.519532c-3.449219-3.449218-9.042969-3.449218-12.492188 0-3.449219 3.453125-3.449219 9.042969 0 12.492188l19.554688 19.546875-15.007813 3c-4.785156.945312-7.894531 5.589843-6.949219 10.371093.820313 4.15625 4.476563 7.140626 8.714844 7.117188.59375 0 1.183594-.058594 1.765625-.179688l26.570313-5.296874 65.324218 65.328124c3.507813 3.386719 9.09375 3.289063 12.480469-.21875 3.304687-3.421874 3.304687-8.84375 0-12.265624zm0 0" fill="#834b10"/><path d="m344.277344 176.550781c0 48.753907-39.523438 88.277344-88.277344 88.277344s-88.277344-39.523437-88.277344-88.277344c0-48.753906 39.523438-88.273437 88.277344-88.273437s88.277344 39.519531 88.277344 88.273437zm0 0" fill="#ebebeb"/><path d="m406.070312 361.929688c0 82.882812-67.1875 150.070312-150.070312 150.070312s-150.070312-67.1875-150.070312-150.070312c0-82.878907 67.1875-150.066407 150.070312-150.066407s150.070312 67.1875 150.070312 150.066407zm0 0" fill="#ebebeb"/><path d="m301.171875 105.929688h-90.34375c-15.199219.003906-28.691406-9.722657-33.5-24.140626l-5.730469-17.207031c-1.539062-4.625.960938-9.625 5.585938-11.164062.898437-.300781 1.839844-.453125 2.785156-.453125h152.0625c4.875.003906 8.824219 3.960937 8.820312 8.835937 0 .945313-.152343 1.882813-.449218 2.78125l-5.730469 17.207031c-4.808594 14.417969-18.300781 24.144532-33.5 24.140626zm0 0" fill="#fd9226"/><g fill="#985713"><path d="m256 331.035156c-7.3125 0-13.242188-5.929687-13.242188-13.242187s5.929688-13.242188 13.242188-13.242188 13.242188 5.929688 13.242188 13.242188-5.929688 13.242187-13.242188 13.242187zm0 0"/><path d="m256 388.414062c-7.3125 0-13.242188-5.929687-13.242188-13.242187s5.929688-13.242187 13.242188-13.242187 13.242188 5.929687 13.242188 13.242187-5.929688 13.242187-13.242188 13.242187zm0 0"/><path d="m256 441.378906c-7.3125 0-13.242188-5.929687-13.242188-13.242187s5.929688-13.238281 13.242188-13.238281 13.242188 5.925781 13.242188 13.238281-5.929688 13.242187-13.242188 13.242187zm0 0"/></g><path d="m273.65625 167.722656c0 9.753906-7.90625 17.65625-17.65625 17.65625s-17.65625-7.902344-17.65625-17.65625c0-9.75 7.90625-17.652344 17.65625-17.652344s17.65625 7.902344 17.65625 17.652344zm0 0" fill="#fd9226"/><path d="m203.035156 335.449219-26.484375-17.65625-26.480469 17.65625v-79.449219h52.964844zm0 0" fill="#b6534f"/><path d="m308.964844 167.722656c-4.875 0-8.828125-3.949218-8.828125-8.824218v-8.828126c0-4.875 3.953125-8.828124 8.828125-8.828124s8.828125 3.953124 8.828125 8.828124v8.828126c0 4.875-3.953125 8.824218-8.828125 8.824218zm0 0" fill="#a45e14"/><path d="m203.035156 167.722656c-4.875 0-8.828125-3.949218-8.828125-8.824218v-8.828126c0-4.875 3.953125-8.828124 8.828125-8.828124s8.828125 3.953124 8.828125 8.828124v8.828126c0 4.875-3.953125 8.824218-8.828125 8.824218zm0 0" fill="#a45e14"/><path d="m256 211.863281c-10.429688-.003906-20.621094-3.101562-29.289062-8.898437l-2.082032-1.378906c-4.0625-2.699219-5.164062-8.179688-2.464844-12.242188 2.699219-4.0625 8.183594-5.164062 12.242188-2.464844l2.085938 1.386719c11.796874 7.914063 27.207031 7.914063 39.007812 0l2.09375-1.394531c4.058594-2.699219 9.542969-1.597656 12.242188 2.464844 2.703124 4.058593 1.597656 9.542968-2.460938 12.242187l-2.09375 1.386719c-8.667969 5.792968-18.855469 8.890625-29.28125 8.898437zm0 0" fill="#ffb1b5"/><path d="m158.898438 229.515625h194.207031c9.75 0 17.652343 7.90625 17.652343 17.65625s-7.902343 17.65625-17.652343 17.65625h-194.207031c-9.753907 0-17.65625-7.90625-17.65625-17.65625s7.902343-17.65625 17.65625-17.65625zm0 0" fill="#ea6b65"/><path d="m494.34375 35.308594c0 9.753906-7.902344 17.65625-17.652344 17.65625-9.753906 0-17.65625-7.902344-17.65625-17.65625 0-9.75 7.902344-17.652344 17.65625-17.652344 9.75 0 17.652344 7.902344 17.652344 17.652344zm0 0" fill="#ebebeb"/><path d="m61.792969 17.65625c0 9.75-7.90625 17.65625-17.65625 17.65625s-17.652344-7.90625-17.652344-17.65625 7.902344-17.65625 17.652344-17.65625 17.65625 7.90625 17.65625 17.65625zm0 0" fill="#dbdbdb"/><path d="m423.722656 114.757812c0 9.75-7.902344 17.65625-17.652344 17.65625s-17.65625-7.90625-17.65625-17.65625 7.90625-17.65625 17.65625-17.65625 17.652344 7.90625 17.652344 17.65625zm0 0" fill="#dbdbdb"/><path d="m132.414062 132.414062c0 9.75-7.90625 17.65625-17.65625 17.65625s-17.65625-7.90625-17.65625-17.65625 7.90625-17.65625 17.65625-17.65625 17.65625 7.90625 17.65625 17.65625zm0 0" fill="#ebebeb"/><path d="m503.171875 326.621094c0 14.625-11.855469 26.480468-26.480469 26.480468-14.628906 0-26.484375-11.855468-26.484375-26.480468s11.855469-26.484375 26.484375-26.484375c14.625 0 26.480469 11.859375 26.480469 26.484375zm0 0" fill="#ebebeb"/><path d="m52.964844 361.929688c0 14.628906-11.855469 26.484374-26.480469 26.484374-14.628906 0-26.484375-11.855468-26.484375-26.484374 0-14.625 11.855469-26.480469 26.484375-26.480469 14.625 0 26.480469 11.855469 26.480469 26.480469zm0 0" fill="#dbdbdb"/></svg>