<svg height="512pt" viewBox="-96 0 512 512.00015" width="512pt" xmlns="http://www.w3.org/2000/svg"><path d="m61.089844 442.222656c-4.816406 0-8.722656-3.902344-8.722656-8.71875v-34.886718c0-4.816407 3.90625-8.71875 8.722656-8.71875s8.71875 3.902343 8.71875 8.71875v34.886718c0 4.816406-3.902344 8.71875-8.71875 8.71875zm0 0" fill="#b94137"/><g fill="#b8eaee"><path d="m187.546875 32.328125h17.441406v43.605469h-17.441406zm0 0"/><path d="m196.265625 41.050781c-2.3125 0-4.53125-.917969-6.164063-2.554687l-26.164062-26.164063 12.332031-12.332031 19.996094 19.996094 20-19.996094 12.332031 12.332031-26.164062 26.164063c-1.636719 1.632812-3.855469 2.554687-6.167969 2.554687zm0 0"/><path d="m239.871094 110.820312h47.96875v17.441407h-47.96875zm0 0"/><path d="m307.835938 151.871094-26.164063-26.164063c-3.402344-3.40625-3.402344-8.925781 0-12.332031l26.164063-26.164062 12.332031 12.332031-19.996094 20 19.996094 19.996093zm0 0"/><path d="m109.054688 110.820312h43.605468v17.441407h-43.605468zm0 0"/><path d="m89.058594 151.871094-12.332032-12.332032 19.996094-20-19.996094-19.996093 12.332032-12.332031 26.164062 26.164062c3.402344 3.40625 3.402344 8.925781 0 12.332031zm0 0"/><path d="m187.546875 163.148438h17.441406v43.605468h-17.441406zm0 0"/><path d="m216.265625 239.082031-20-19.996093-19.996094 19.996093-12.332031-12.332031 26.164062-26.164062c3.40625-3.402344 8.925782-3.402344 12.332032 0l26.160156 26.164062zm0 0"/></g><path d="m120.332031 55.941406 12.332031-12.332031 34.886719 34.886719-12.335937 12.332031zm0 0" fill="#b3e4e8"/><path d="m224.980469 160.597656 12.332031-12.332031 34.886719 34.882813-12.335938 12.335937zm0 0" fill="#b3e4e8"/><path d="m120.332031 183.144531 34.886719-34.886719 12.332031 12.335938-34.882812 34.882812zm0 0" fill="#b3e4e8"/><path d="m224.988281 78.488281 34.882813-34.886719 12.335937 12.335938-34.886719 34.882812zm0 0" fill="#b3e4e8"/><path d="m87.253906 395.851562v-189.097656c0-14.453125-11.714844-26.164062-26.164062-26.164062-14.449219 0-26.164063 11.710937-26.164063 26.164062v189.097656c-22.050781 10.414063-35.773437 32.964844-34.8867185 57.335938 1.5585935 32.273438 27.7109375 57.902344 60.0117185 58.804688 33.710938.503906 61.449219-26.414063 61.953125-60.125.359375-23.859376-13.214844-45.738282-34.75-56.015626zm0 0" fill="#b8eaee"/><path d="m87.253906 450.945312c0 14.449219-11.714844 26.164063-26.164062 26.164063-14.449219 0-26.164063-11.714844-26.164063-26.164063 0-14.449218 11.714844-26.164062 26.164063-26.164062 14.449218 0 26.164062 11.714844 26.164062 26.164062zm0 0" fill="#b94137"/><path d="m87.253906 337.570312h-17.445312c-4.816406 0-8.71875-3.90625-8.71875-8.722656s3.902344-8.71875 8.71875-8.71875h17.445312c4.816406 0 8.71875 3.902344 8.71875 8.71875s-3.902344 8.722656-8.71875 8.722656zm0 0" fill="#69b0bb"/><path d="m87.253906 302.683594h-17.445312c-4.816406 0-8.71875-3.902344-8.71875-8.71875s3.902344-8.722656 8.71875-8.722656h17.445312c4.816406 0 8.71875 3.90625 8.71875 8.722656s-3.902344 8.71875-8.71875 8.71875zm0 0" fill="#8aced8"/><path d="m87.253906 372.453125h-17.445312c-4.816406 0-8.71875-3.902344-8.71875-8.71875s3.902344-8.722656 8.71875-8.722656h17.445312c4.816406 0 8.71875 3.90625 8.71875 8.722656s-3.902344 8.71875-8.71875 8.71875zm0 0" fill="#8aced8"/><path d="m87.253906 267.800781h-17.445312c-4.816406 0-8.71875-3.90625-8.71875-8.722656s3.902344-8.71875 8.71875-8.71875h17.445312c4.816406 0 8.71875 3.902344 8.71875 8.71875s-3.902344 8.722656-8.71875 8.722656zm0 0" fill="#69b0bb"/><path d="m196.265625 176.226562c-31.304687 0-56.6875-25.378906-56.6875-56.6875 0-31.304687 25.378906-56.6875 56.6875-56.6875s56.6875 25.382813 56.6875 56.6875c-.039063 31.292969-25.394531 56.652344-56.6875 56.6875zm0-95.929687c-21.671875 0-39.242187 17.570313-39.242187 39.246094 0 21.671875 17.570312 39.242187 39.242187 39.242187 21.675781 0 39.246094-17.570312 39.246094-39.242187-.023438-21.667969-17.582031-39.222657-39.246094-39.246094zm0 0" fill="#b8eaee"/><path d="m196.265625 93.378906c-14.449219 0-26.164063 11.710938-26.164063 26.164063 0 14.449219 11.714844 26.160156 26.164063 26.160156s26.164063-11.710937 26.164063-26.160156c0-14.453125-11.714844-26.164063-26.164063-26.164063zm0 39.242188c-7.222656 0-13.082031-5.855469-13.082031-13.078125 0-7.226563 5.859375-13.082031 13.082031-13.082031 7.226563 0 13.082031 5.855468 13.082031 13.082031 0 7.222656-5.855468 13.078125-13.082031 13.078125zm0 0" fill="#b8eaee"/></svg>