<svg height="512pt" viewBox="0 -22 512.00003 512" width="512pt" xmlns="http://www.w3.org/2000/svg"><path d="m459.933594 468.609375c-.585938.003906-1.167969-.054687-1.738282-.171875-4.695312-.957031-7.726562-5.542969-6.769531-10.238281 0 0 0 0 0-.003907l8.679688-43.390624c.777343-4.726563 5.242187-7.929688 9.972656-7.152344 4.726563.777344 7.929687 5.242187 7.152344 9.96875-.03125.199218-.070313.394531-.117188.585937l-8.675781 43.390625c-.796875 4.070313-4.359375 7.007813-8.503906 7.011719zm0 0" fill="#a45e14"/><path d="m0 95.457031h60.746094v17.355469h-60.746094zm0 0" fill="#6fbbc6"/><path d="m78.101562 95.457031h52.066407v17.355469h-52.066407zm0 0" fill="#6fbbc6"/><path d="m26.035156 52.066406h60.746094v17.359375h-60.746094zm0 0" fill="#aedee2"/><path d="m199.59375 355.796875h34.710938v17.355469h-34.710938zm0 0" fill="#aedee2"/><path d="m190.914062 407.863281h52.070313v17.355469h-52.070313zm0 0" fill="#6fbbc6"/><path d="m104.136719 52.066406h43.390625v17.359375h-43.390625zm0 0" fill="#aedee2"/><path d="m86.78125 164.882812h43.386719v17.355469h-43.386719zm0 0" fill="#aedee2"/><path d="m234.304688 459.933594v-65.085938c0-41.183594-18.417969-80.210937-50.210938-106.390625-58.222656-47.941406-79.542969-127.589843-53.054688-198.207031l33.84375-90.25h286.371094l-109.53125 146.050781c-12.972656 17.292969-16.945312 39.726563-10.691406 60.425781l11.515625 38.085938c14.300781 47.324219 2.160156 98.683594-31.816406 134.59375zm0 0" fill="#b8eaee"/><g fill="#a8d6da"><path d="m119.902344 156.203125h88.367187v-17.355469h-87.835937c-.46875 5.773438-.644532 11.566406-.53125 17.355469zm0 0"/><path d="m225.628906 138.847656h17.355469v17.355469h-17.355469zm0 0"/><path d="m172.308594 277.695312h88.03125v-17.355468h-103.417969c4.742187 6.117187 9.882813 11.914062 15.386719 17.355468zm0 0"/><path d="m277.695312 260.339844h17.355469v17.355468h-17.355469zm0 0"/><path d="m399.1875 216.949219h17.355469v17.355469h-17.355469zm0 0"/><path d="m381.832031 147.527344h17.355469v17.355468h-17.355469zm0 0"/></g><path d="m390.507812 277.695312h17.355469v17.355469h-17.355469zm0 0" fill="#6fbbc6"/><path d="m69.425781 269.015625h17.355469v17.355469h-17.355469zm0 0" fill="#a8d6da"/><path d="m442.574219 173.558594h17.359375v17.355468h-17.359375zm0 0" fill="#6fbbc6"/><path d="m234.304688 95.457031h86.78125v17.355469h-86.78125zm0 0" fill="#a8d6da"/><path d="m338.441406 95.457031v17.355469h28.203125l13.015625-17.355469zm0 0" fill="#a8d6da"/><path d="m17.355469 164.882812h52.070312v17.355469h-52.070312zm0 0" fill="#aedee2"/><path d="m156.203125 355.796875h26.035156v17.355469h-26.035156zm0 0" fill="#aedee2"/><path d="m104.136719 355.796875h34.710937v17.355469h-34.710937zm0 0" fill="#aedee2"/><path d="m138.847656 407.863281h34.710938v17.355469h-34.710938zm0 0" fill="#6fbbc6"/><path d="m78.101562 407.863281h43.390626v17.355469h-43.390626zm0 0" fill="#6fbbc6"/><path d="m199.59375 199.59375h86.777344v17.355469h-86.777344zm0 0" fill="#a8d6da"/><path d="m331.03125 206.476562c-.667969-2.265624-1.214844-4.5625-1.640625-6.882812h-25.660156v17.355469h30.464843zm0 0" fill="#a8d6da"/><path d="m485.964844 312.40625-52.066406 104.136719h69.421874zm0 0" fill="#6b9777"/><path d="m494.644531 286.371094-60.746093 86.78125h78.101562zm0 0" fill="#85bc94"/><path d="m390.507812 407.863281-26.035156 17.355469-8.675781 34.714844h43.390625l8.675781-26.035156zm0 0" fill="#fbb540"/></svg>