<svg height="512pt" viewBox="0 -41 512.00036 512" width="512pt" xmlns="http://www.w3.org/2000/svg"><path d="m404.242188 107.808594c0 29.765625-24.132813 53.898437-53.898438 53.898437-29.769531 0-53.898438-24.132812-53.898438-53.898437 0-29.769532 24.128907-53.902344 53.898438-53.902344 29.765625 0 53.898438 24.132812 53.898438 53.902344zm0 0" fill="#fbb540"/><path d="m35.933594 17.976562h179.660156c19.847656 0 35.933594 16.085938 35.933594 35.929688v341.359375c0 19.847656-16.085938 35.933594-35.933594 35.933594h-179.660156c-19.847656 0-35.933594-16.085938-35.933594-35.933594v-341.359375c0-19.84375 16.085938-35.929688 35.933594-35.929688zm0 0" fill="#ebebeb"/><path d="m215.59375 359.335938h-179.660156v-296.445313c0-9.921875 8.042968-17.964844 17.964844-17.964844h143.730468c9.921875 0 17.964844 8.042969 17.964844 17.964844zm0 0" fill="#64a8b2"/><path d="m80.847656 35.941406h89.832032v26.949219c0 9.921875-8.042969 17.96875-17.964844 17.96875h-53.902344c-9.921875 0-17.964844-8.046875-17.964844-17.96875zm0 0" fill="#ebebeb"/><path d="m143.730469 404.25h-35.933594c-4.960937 0-8.980469-4.019531-8.980469-8.984375 0-4.960937 4.019532-8.980469 8.980469-8.980469h35.933594c4.960937 0 8.984375 4.019532 8.984375 8.980469 0 4.964844-4.023438 8.984375-8.984375 8.984375zm0 0" fill="#d9d9d9"/><path d="m368.308594 152.722656h-2.480469c-7.269531-20.925781-30.125-31.996094-51.050781-24.726562-3.035156 1.054687-5.933594 2.472656-8.632813 4.21875-11.402343-30.164063-45.101562-45.375-75.265625-33.96875-22.664062 8.566406-37.683594 30.246094-37.742187 54.476562 0 .761719.082031 1.5.117187 2.246094-23.636718 7.296875-36.878906 32.375-29.578125 56.011719 5.8125 18.820312 23.238281 31.636719 42.9375 31.574219h161.695313c24.808594 0 44.917968-20.109376 44.917968-44.917969 0-24.804688-20.113281-44.914063-44.917968-44.914063zm0 0" fill="#b3e4e8"/><path d="m368.308594 107.808594c-3.710938 0-7.042969-2.28125-8.382813-5.742188-1.15625-2.984375-3.820312-5.128906-6.988281-5.621094-4.929688-.566406-8.46875-5.019531-7.902344-9.945312.5625-4.929688 5.015625-8.46875 9.945313-7.90625.21875.023438.4375.058594.652343.097656 9.511719 1.488282 17.515626 7.921875 21.011719 16.890625 1.792969 4.625-.507812 9.828125-5.132812 11.621094-1.023438.394531-2.109375.597656-3.203125.605469zm0 0" fill="#f3af3e"/><g fill="#f7ba61"><path d="m307.449219 39.4375c-3.433594.007812-6.570313-1.941406-8.085938-5.023438l-7.941406-16.125c-2.191406-4.464843-.347656-9.859374 4.117187-12.050781 4.46875-2.1875 9.863282-.34375 12.050782 4.121094l7.941406 16.167969c.597656 1.238281.90625 2.597656.898438 3.972656 0 4.960938-4.019532 8.980469-8.980469 8.980469zm0 0"/><path d="m449.15625 154.753906c-.984375 0-1.960938-.164062-2.890625-.476562l-17.015625-5.785156c-3.640625-1.238282-6.089844-4.660157-6.089844-8.507813 0-.984375.160156-1.960937.476563-2.890625 1.59375-4.699219 6.695312-7.214844 11.394531-5.621094.003906 0 .007812.003906.011719.003906l17.007812 5.777344c3.644531 1.238282 6.09375 4.664063 6.089844 8.515625-.003906.984375-.164063 1.960938-.476563 2.894531-1.238281 3.640626-4.660156 6.089844-8.507812 6.089844zm0 0"/><path d="m427.703125 80.355469c-4.960937.03125-9.007813-3.96875-9.035156-8.929688-.023438-3.460937 1.949219-6.628906 5.066406-8.140625l16.167969-7.941406c4.46875-2.1875 9.863281-.34375 12.050781 4.121094 2.191406 4.464844.347656 9.859375-4.117187 12.050781l-16.167969 7.941406c-1.234375.597657-2.589844.90625-3.964844.898438zm0 0"/><path d="m376.042969 34.988281c-4.960938.003907-8.984375-4.015625-8.988281-8.976562 0-.988281.160156-1.972657.480468-2.90625l5.785156-17.003907c1.59375-4.699218 6.695313-7.214843 11.394532-5.621093 3.648437 1.234375 6.101562 4.660156 6.097656 8.511719 0 .984374-.164062 1.960937-.476562 2.894531l-5.777344 17.011719c-1.238282 3.644531-4.664063 6.097656-8.515625 6.089843zm0 0"/></g><path d="m503.054688 413.234375c-3.421876.019531-6.554688-1.910156-8.082032-4.96875l-8.984375-17.964844c-2.21875-4.441406-.417969-9.839843 4.023438-12.058593 4.441406-2.214844 9.839843-.414063 12.054687 4.027343l8.984375 17.964844c2.21875 4.4375.417969 9.832031-4.019531 12.050781-1.234375.617188-2.59375.941406-3.976562.949219zm0 0" fill="#b8eaee"/><path d="m332.375 359.335938c-3.421875.019531-6.554688-1.910157-8.082031-4.96875l-8.984375-17.964844c-2.21875-4.441406-.417969-9.839844 4.023437-12.058594 4.441407-2.214844 9.839844-.414062 12.054688 4.027344l8.984375 17.964844c2.21875 4.4375.417968 9.832031-4.019532 12.050781-1.234374.617187-2.59375.941406-3.976562.949219zm0 0" fill="#b8eaee"/><path d="m377.292969 305.4375c-3.421875.015625-6.558594-1.910156-8.085938-4.96875l-8.984375-17.96875c-2.214844-4.4375-.414062-9.835938 4.027344-12.054688 4.4375-2.21875 9.835938-.414062 12.054688 4.027344l8.980468 17.964844c2.21875 4.4375.417969 9.832031-4.019531 12.050781-1.234375.617188-2.59375.941407-3.972656.949219zm0 0" fill="#c0f5f9"/><path d="m431.191406 413.234375c-3.421875.019531-6.554687-1.910156-8.085937-4.96875l-8.984375-17.964844c-2.214844-4.441406-.414063-9.839843 4.027344-12.058593 4.4375-2.214844 9.835937-.414063 12.054687 4.027343l8.984375 17.964844c2.214844 4.4375.417969 9.832031-4.023438 12.050781-1.234374.617188-2.59375.941406-3.972656.949219zm0 0" fill="#c0f5f9"/><path d="m359.324219 413.234375c-3.421875.019531-6.554688-1.910156-8.082031-4.96875l-8.984376-17.964844c-2.21875-4.441406-.417968-9.839843 4.023438-12.058593 4.441406-2.214844 9.839844-.414063 12.054688 4.027343l8.984374 17.964844c2.21875 4.4375.417969 9.832031-4.019531 12.050781-1.234375.617188-2.59375.941406-3.976562.949219zm0 0" fill="#c0f5f9"/><path d="m404.242188 359.335938c-3.421876.019531-6.554688-1.910157-8.085938-4.96875l-8.984375-17.964844c-2.214844-4.441406-.414063-9.839844 4.027344-12.058594 4.4375-2.214844 9.835937-.414062 12.054687 4.027344l8.980469 17.964844c2.21875 4.4375.417969 9.832031-4.019531 12.050781-1.234375.617187-2.59375.941406-3.972656.949219zm0 0" fill="#b3e4e8"/><path d="m449.15625 305.4375c-3.421875.015625-6.554688-1.910156-8.085938-4.96875l-8.980468-17.96875c-2.21875-4.4375-.417969-9.835938 4.023437-12.054688 4.441407-2.21875 9.839844-.414062 12.054688 4.027344l8.984375 17.964844c2.21875 4.4375.417968 9.832031-4.019532 12.050781-1.234374.617188-2.597656.941407-3.976562.949219zm0 0" fill="#b3e4e8"/><path d="m305.425781 305.4375c-3.421875.015625-6.554687-1.910156-8.085937-4.96875l-8.980469-17.96875c-2.21875-4.4375-.417969-9.835938 4.023437-12.054688 4.441407-2.21875 9.839844-.414062 12.054688 4.027344l8.984375 17.964844c2.21875 4.4375.417969 9.832031-4.019531 12.050781-1.234375.617188-2.597656.941407-3.976563.949219zm0 0" fill="#b8eaee"/><path d="m476.105469 359.335938c-3.421875.019531-6.554688-1.910157-8.082031-4.96875l-8.984376-17.964844c-2.21875-4.441406-.417968-9.839844 4.023438-12.058594 4.441406-2.214844 9.839844-.414062 12.054688 4.027344l8.984374 17.964844c2.21875 4.4375.417969 9.832031-4.019531 12.050781-1.234375.617187-2.59375.941406-3.976562.949219zm0 0" fill="#c0f5f9"/></svg>