<svg height="511pt" viewBox="-4 0 511 511.99978" width="511pt" xmlns="http://www.w3.org/2000/svg"><path d="m51.703125 51.097656h17.066406v51.203125h-17.066406zm0 0" fill="#5d9aa4"/><path d="m43.167969 272.976562h34.136719v230.414063h-34.136719zm0 0" fill="#a8a8a8"/><path d="m145.574219 42.5625h-136.539063c-4.714844 0-8.535156-3.820312-8.535156-8.53125 0-4.714844 3.820312-8.535156 8.535156-8.535156h136.539063c4.714843 0 8.535156 3.820312 8.535156 8.535156 0 4.710938-3.820313 8.53125-8.535156 8.53125zm0 0" fill="#a8a8a8"/><path d="m128.507812 68.164062c-4.714843 0-8.535156-3.820312-8.53125-8.535156 0-2.261718.898438-4.429687 2.496094-6.03125l19.570313-19.566406-19.570313-19.570312c-3.273437-3.386719-3.179687-8.792969.210938-12.066407 3.308594-3.191406 8.550781-3.191406 11.855468 0l25.601563 25.601563c3.332031 3.332031 3.332031 8.734375 0 12.066406l-25.601563 25.601562c-1.597656 1.601563-3.769531 2.5-6.03125 2.5zm0 0" fill="#b9b9b9"/><path d="m34.636719 76.699219h51.203125v213.347656h-51.203125zm0 0" fill="#69b0bb"/><path d="m34.636719 162.039062c-4.714844 0-8.535157-3.820312-8.535157-8.535156v-42.667968c0-4.714844 3.820313-8.535157 8.535157-8.535157h128.007812c4.710938.011719 8.523438 3.839844 8.511719 8.554688-.007812 3.660156-2.347656 6.90625-5.816406 8.070312l-128.007813 42.667969c-.867187.296875-1.78125.445312-2.695312.445312zm8.53125-42.671874v22.292968l66.890625-22.292968zm0 0" fill="#cdcdcd"/><path d="m162.644531 272.976562h-128.007812c-4.714844 0-8.535157-3.820312-8.535157-8.53125v-42.671874c.003907-2.742188 1.324219-5.316407 3.550782-6.917969 2.214844-1.621094 5.082031-2.058594 7.679687-1.171875l128.007813 42.671875c4.46875 1.5 6.875 6.335937 5.375 10.804687-1.164063 3.46875-4.414063 5.808594-8.070313 5.816406zm-119.476562-17.066406h66.890625l-66.890625-22.28125zm0 0" fill="#cdcdcd"/><path d="m85.839844 34.03125c0 14.140625-11.464844 25.601562-25.601563 25.601562-14.140625 0-25.601562-11.460937-25.601562-25.601562s11.460937-25.601562 25.601562-25.601562c14.136719 0 25.601563 11.460937 25.601563 25.601562zm0 0" fill="#69b0bb"/><path d="m290.652344 298.578125c-14.464844.015625-27.355469 9.128906-32.191406 22.761719-1.570313 4.445312.761718 9.320312 5.207031 10.890625 4.441406 1.566406 9.316406-.761719 10.886719-5.207031 3.144531-8.886719 12.898437-13.542969 21.785156-10.398438 8.882812 3.144531 13.539062 12.894531 10.398437 21.78125-2.414062 6.816406-8.859375 11.375-16.085937 11.375h-42.671875c-4.710938 0-8.53125 3.824219-8.53125 8.535156 0 4.714844 3.820312 8.535156 8.53125 8.535156h42.671875c18.851562 0 34.132812-15.285156 34.132812-34.136718 0-18.851563-15.28125-34.136719-34.132812-34.136719zm0 0" fill="#b3e4e8"/><path d="m444.257812 400.984375h-93.871093c-4.710938 0-8.535157-3.820313-8.535157-8.53125 0-4.714844 3.824219-8.535156 8.535157-8.535156h93.871093c4.714844 0 8.535157 3.820312 8.535157 8.535156 0 4.710937-3.820313 8.53125-8.535157 8.53125zm0 0" fill="#b3e4e8"/><path d="m316.253906 400.984375h-25.601562c-4.714844 0-8.535156-3.820313-8.535156-8.53125 0-4.714844 3.820312-8.535156 8.535156-8.535156h25.601562c4.710938 0 8.53125 3.820312 8.53125 8.535156 0 4.710937-3.820312 8.53125-8.53125 8.53125zm0 0" fill="#a8d6da"/><path d="m256.515625 400.984375h-85.339844c-4.710937 0-8.53125-3.820313-8.53125-8.53125 0-4.714844 3.820313-8.535156 8.53125-8.535156h85.339844c4.710937 0 8.53125 3.820312 8.53125 8.535156.003906 4.710937-3.820313 8.53125-8.53125 8.53125zm0 0" fill="#b3e4e8"/><path d="m205.3125 435.121094h-34.136719c-4.710937 0-8.53125-3.820313-8.53125-8.535156 0-4.710938 3.820313-8.53125 8.53125-8.53125h34.136719c4.710938 0 8.53125 3.820312 8.53125 8.53125.003906 4.714843-3.820312 8.535156-8.53125 8.535156zm0 0" fill="#a8d6da"/><path d="m213.847656 366.851562h-42.671875c-4.710937 0-8.53125-3.820312-8.53125-8.535156 0-4.710937 3.820313-8.535156 8.53125-8.535156h42.671875c4.710938 0 8.53125 3.824219 8.53125 8.535156 0 4.714844-3.820312 8.535156-8.53125 8.535156zm0 0" fill="#a8d6da"/><path d="m273.582031 435.121094h-34.132812c-4.714844 0-8.535157-3.820313-8.535157-8.535156 0-4.710938 3.820313-8.53125 8.535157-8.53125h34.132812c4.714844 0 8.535157 3.820312 8.535157 8.53125 0 4.714843-3.820313 8.535156-8.535157 8.535156zm0 0" fill="#b3e4e8"/><path d="m407.042969 418.113281c-.101563 0-.195313-.058593-.296875-.058593h-90.492188c-4.714844 0-8.535156 3.820312-8.535156 8.53125 0 4.714843 3.820312 8.535156 8.535156 8.535156h88.222656.167969 1.210938c16.496093.003906 29.867187 13.378906 29.863281 29.875s-13.378906 29.867187-29.875 29.863281c-15.207031-.003906-27.980469-11.429687-29.675781-26.542969-.519531-4.683594-4.738281-8.0625-9.421875-7.542968-4.683594.519531-8.0625 4.738281-7.542969 9.421874 2.835937 25.765626 26.023437 44.355469 51.789063 41.519532 25.765624-2.835938 44.355468-26.023438 41.519531-51.789063-2.570313-23.34375-21.992188-41.195312-45.46875-41.789062zm0 0" fill="#b3e4e8"/><path d="m503.996094 230.308594-256.015625 39.828125-85.335938 2.839843v-170.675781l85.335938 2.84375 256.015625 39.824219zm0 0" fill="#ea6b65"/><g fill="#d9d9d9"><path d="m418.65625 243.585938 85.339844-13.277344v-85.339844l-85.339844-13.277344zm0 0"/><path d="m333.320312 256.859375v-138.4375l-85.339843-13.277344v164.992188zm0 0"/></g></svg>